<svg id="Layer_1" xmlns="http://www.w3.org/2000/svg" xmlns:xlink="http://www.w3.org/1999/xlink" viewBox="0 0 111.6 56.1"><style>.st0{fill:#f39}.st1{fill:#fff}.st2{display:none}</style><g id="Logo_1_"><path d="M54.3 0h57.4v56H54.3z"/><path class="st0" d="M0 0h54.3v56H0z"/><path class="st1" d="M59.4 24v-4.8h4.8V24h-4.8zm25.5-12.8l-4.7.8c-.2-.9-.5-1.7-1.1-2.1-.6-.5-1.3-.7-2.2-.7-1.2 0-2.2.4-2.9 1.2s-1 2.2-1 4.2c0 2.1.4 3.7 1.1 4.6s1.7 1.3 2.9 1.3c.9 0 1.7-.3 2.2-.8.6-.5 1-1.4 1.2-2.7l4.7.8c-.5 2.2-1.4 3.8-2.8 4.9-1.4 1.1-3.2 1.7-5.6 1.7-2.7 0-4.8-.8-6.3-2.5s-2.4-4-2.4-7 .8-5.3 2.4-7c1.6-1.7 3.7-2.5 6.4-2.5 2.2 0 4 .5 5.3 1.4 1.3 1 2.3 2.4 2.8 4.4zm2.6 3.4c0-1.6.4-3.1 1.2-4.6s1.9-2.6 3.3-3.4c1.4-.8 3.1-1.2 4.8-1.2 2.8 0 5 .9 6.8 2.7s2.6 4 2.6 6.8-.9 5-2.7 6.8c-1.8 1.8-4 2.7-6.7 2.7-1.7 0-3.2-.4-4.8-1.1s-2.7-1.9-3.4-3.3c-.7-1.5-1.1-3.3-1.1-5.4zm4.9.3c0 1.8.4 3.2 1.3 4.1s1.9 1.4 3.2 1.4 2.2-.4 3.1-1.4c.8-1 1.3-2.4 1.3-4.2 0-1.8-.4-3.1-1.3-4.1s-1.9-1.4-3.2-1.4-2.3.5-3.2 1.4c-.8 1-1.2 2.4-1.2 4.2zM59.4 52v-4.8h4.8V52h-4.8zm21.7 0v-2.7c-.7 1-1.5 1.7-2.6 2.3s-2.2.8-3.4.8c-1.2 0-2.3-.3-3.3-.8s-1.7-1.3-2.1-2.3c-.4-1-.7-2.3-.7-4V33.8h4.8v8.3c0 2.5.1 4.1.3 4.7.2.6.5 1 1 1.4s1.1.5 1.8.5c.8 0 1.6-.2 2.2-.7.7-.5 1.1-1 1.3-1.7.2-.7.4-2.3.4-4.9v-7.7h4.8V52h-4.5zm9.2 0V26.9h4.8v13.3l5.6-6.4h5.9l-6.2 6.6 6.7 11.5h-5.2l-4.6-8.2-2.2 2.3v6h-4.8z"/><path d="M50 19.8s0 .1 0 0c0 13-10.5 23.5-23.4 23.5S3.3 32.8 3.3 19.9v-.1s.4-3.5 3.9-3.4c3.5.1 4.1 3.4 4.1 3.4.3 8.2 7.1 14.8 15.4 14.8S41.8 28 42 19.8c0 0 .2-3.1 3.9-3.1s4.1 3.2 4.1 3.1"/></g><image width="78" height="40" xlink:href="4EF25419CAE2E506.jpeg" transform="matrix(1.438 0 0 1.402 1.572 .052)" overflow="visible" id="Old_logo" class="st2"/></svg>